<svg width="500" height="500" viewBox="0 0 500 500" fill="none" xmlns="http://www.w3.org/2000/svg">
<path d="M249.35 367.191H456V160.191L249.35 367.191ZM418 329.351H342.77L418.13 254.001L418 329.351Z" fill="#DBDBDB"/>
<path d="M449.67 166.591L448.75 167.511L249.35 367.191H456V160.191L449.67 166.591ZM418 329.361H342.77L418.14 254.001L418 329.361Z" fill="#EBEBEB"/>
<path d="M456.03 168.951H448.93V169.941H456.03V168.951Z" fill="#C7C7C7"/>
<path d="M456.03 173.551H451.84V174.541H456.03V173.551Z" fill="#C7C7C7"/>
<path d="M456.03 178.141H451.84V179.131H456.03V178.141Z" fill="#C7C7C7"/>
<path d="M456.03 182.74H451.84V183.73H456.03V182.74Z" fill="#C7C7C7"/>
<path d="M456.03 187.342H451.84V188.332H456.03V187.342Z" fill="#C7C7C7"/>
<path d="M456.03 191.932H451.84V192.932H456.03V191.932Z" fill="#C7C7C7"/>
<path d="M456.03 196.531H451.84V197.521H456.03V196.531Z" fill="#C7C7C7"/>
<path d="M456.03 201.131H448.93V202.121H456.03V201.131Z" fill="#C7C7C7"/>
<path d="M456.03 205.74H451.84V206.73H456.03V205.74Z" fill="#C7C7C7"/>
<path d="M456.03 210.32H451.84V211.31H456.03V210.32Z" fill="#C7C7C7"/>
<path d="M456.03 214.932H451.84V215.922H456.03V214.932Z" fill="#C7C7C7"/>
<path d="M456.03 219.531H451.84V220.521H456.03V219.531Z" fill="#C7C7C7"/>
<path d="M456.03 224.121H451.84V225.111H456.03V224.121Z" fill="#C7C7C7"/>
<path d="M456.03 228.721H451.84V229.711H456.03V228.721Z" fill="#C7C7C7"/>
<path d="M456.03 233.32H448.93V234.31H456.03V233.32Z" fill="#C7C7C7"/>
<path d="M456.03 237.91H451.84V238.9H456.03V237.91Z" fill="#C7C7C7"/>
<path d="M456.03 242.512H451.84V243.502H456.03V242.512Z" fill="#C7C7C7"/>
<path d="M456.03 247.111H451.84V248.101H456.03V247.111Z" fill="#C7C7C7"/>
<path d="M456.03 251.701H451.84V252.701H456.03V251.701Z" fill="#C7C7C7"/>
<path d="M456.03 256.301H451.84V257.291H456.03V256.301Z" fill="#C7C7C7"/>
<path d="M456.03 260.91H451.84V261.9H456.03V260.91Z" fill="#C7C7C7"/>
<path d="M456.03 265.512H448.93V266.502H456.03V265.512Z" fill="#C7C7C7"/>
<path d="M456.03 270.092H451.84V271.082H456.03V270.092Z" fill="#C7C7C7"/>
<path d="M456.03 274.701H451.84V275.691H456.03V274.701Z" fill="#C7C7C7"/>
<path d="M456.03 279.301H451.84V280.291H456.03V279.301Z" fill="#C7C7C7"/>
<path d="M456.03 283.891H451.84V284.881H456.03V283.891Z" fill="#C7C7C7"/>
<path d="M456.03 288.49H451.84V289.48H456.03V288.49Z" fill="#C7C7C7"/>
<path d="M456.03 293.092H451.84V294.082H456.03V293.092Z" fill="#C7C7C7"/>
<path d="M456.03 297.682H448.93V298.682H456.03V297.682Z" fill="#C7C7C7"/>
<path d="M456.03 302.281H451.84V303.271H456.03V302.281Z" fill="#C7C7C7"/>
<path d="M456.03 306.881H451.84V307.871H456.03V306.881Z" fill="#C7C7C7"/>
<path d="M456.03 311.49H451.84V312.48H456.03V311.49Z" fill="#C7C7C7"/>
<path d="M456.03 316.07H451.84V317.06H456.03V316.07Z" fill="#C7C7C7"/>
<path d="M456.03 320.682H451.84V321.672H456.03V320.682Z" fill="#C7C7C7"/>
<path d="M456.03 325.281H451.84V326.271H456.03V325.281Z" fill="#C7C7C7"/>
<path d="M456.03 329.871H448.93V330.861H456.03V329.871Z" fill="#C7C7C7"/>
<path d="M456.03 334.471H451.84V335.461H456.03V334.471Z" fill="#C7C7C7"/>
<path d="M456.03 339.07H451.84V340.06H456.03V339.07Z" fill="#C7C7C7"/>
<path d="M456.03 343.66H451.84V344.65H456.03V343.66Z" fill="#C7C7C7"/>
<path d="M456.03 348.262H451.84V349.252H456.03V348.262Z" fill="#C7C7C7"/>
<path d="M456.03 352.861H451.84V353.851H456.03V352.861Z" fill="#C7C7C7"/>
<path d="M456.03 357.451H451.84V358.451H456.03V357.451Z" fill="#C7C7C7"/>
<path d="M433.81 205.37L439.32 196.5L436.6 194.82C436.211 194.574 435.897 194.226 435.694 193.813C435.491 193.399 435.407 192.938 435.45 192.48C435.48 191.96 435.48 191.44 435.45 190.92C435.436 190.461 435.551 190.008 435.78 189.61C436.01 189.213 436.346 188.887 436.75 188.67L439.57 187.16L434.67 178L431.85 179.51C431.445 179.725 430.988 179.823 430.531 179.793C430.073 179.763 429.633 179.606 429.26 179.34C428.832 179.042 428.388 178.768 427.93 178.52C427.525 178.302 427.189 177.977 426.958 177.58C426.726 177.183 426.61 176.729 426.62 176.27L426.72 173.07L416.29 172.75L416.19 175.96C416.171 176.419 416.025 176.863 415.77 177.244C415.514 177.626 415.157 177.929 414.74 178.12C414.5 178.22 414.28 178.34 414.05 178.46C413.82 178.58 413.6 178.71 413.38 178.84C412.991 179.08 412.542 179.207 412.085 179.207C411.628 179.207 411.179 179.08 410.79 178.84L408.05 177.15L402.55 186.02L405.27 187.71C405.659 187.956 405.973 188.304 406.176 188.717C406.379 189.131 406.463 189.592 406.42 190.05C406.373 190.565 406.357 191.083 406.37 191.6C406.384 192.059 406.269 192.512 406.04 192.91C405.81 193.307 405.474 193.633 405.07 193.85L402.25 195.36L407.19 204.57L410 203C410.405 202.785 410.862 202.687 411.319 202.717C411.777 202.747 412.217 202.904 412.59 203.17C413.017 203.463 413.457 203.733 413.91 203.98C414.316 204.196 414.654 204.521 414.886 204.918C415.117 205.316 415.233 205.77 415.22 206.23L415.13 209.44L425.56 209.76L425.66 206.56C425.68 206.102 425.826 205.658 426.082 205.277C426.338 204.896 426.693 204.592 427.11 204.4L427.81 204.06C428.03 203.93 428.26 203.81 428.48 203.67C428.871 203.429 429.321 203.302 429.78 203.302C430.239 203.302 430.689 203.429 431.08 203.67L433.81 205.37ZM425 198.78C423.509 199.578 421.816 199.916 420.133 199.751C418.45 199.586 416.854 198.927 415.547 197.855C414.239 196.784 413.278 195.348 412.786 193.731C412.294 192.113 412.292 190.386 412.781 188.768C413.27 187.15 414.228 185.713 415.534 184.639C416.84 183.565 418.435 182.902 420.117 182.734C421.799 182.566 423.494 182.901 424.986 183.696C426.478 184.491 427.701 185.71 428.5 187.2C429.032 188.19 429.364 189.275 429.477 190.393C429.589 191.511 429.479 192.641 429.154 193.717C428.829 194.792 428.294 195.793 427.582 196.662C426.869 197.531 425.992 198.251 425 198.78Z" fill="#DBDBDB"/>
<path d="M158.81 122.212L155.15 115.872L153.21 117.002C152.931 117.162 152.613 117.241 152.291 117.23C151.97 117.22 151.658 117.12 151.39 116.942C151.086 116.74 150.769 116.56 150.44 116.402C150.146 116.262 149.896 116.043 149.719 115.769C149.543 115.495 149.446 115.177 149.44 114.852V112.602H142.12V114.842C142.117 115.168 142.021 115.487 141.844 115.761C141.667 116.035 141.416 116.254 141.12 116.392C140.793 116.552 140.475 116.732 140.17 116.932C139.902 117.11 139.59 117.21 139.269 117.22C138.947 117.231 138.629 117.152 138.35 116.992L136.41 115.872L132.75 122.212L134.7 123.332C134.978 123.496 135.205 123.735 135.355 124.021C135.505 124.307 135.573 124.629 135.55 124.952C135.55 125.132 135.55 125.302 135.55 125.492C135.55 125.682 135.55 125.852 135.55 126.022C135.574 126.342 135.508 126.662 135.36 126.946C135.211 127.231 134.986 127.468 134.71 127.632L132.71 128.762L136.37 135.102L138.32 133.972C138.601 133.815 138.919 133.739 139.24 133.751C139.561 133.763 139.872 133.864 140.14 134.042C140.442 134.241 140.756 134.421 141.08 134.582C141.376 134.719 141.627 134.938 141.804 135.212C141.981 135.486 142.077 135.805 142.08 136.132V138.372H149.4V136.132C149.406 135.806 149.503 135.488 149.679 135.214C149.856 134.94 150.106 134.721 150.4 134.582C150.725 134.423 151.039 134.243 151.34 134.042C151.61 133.864 151.923 133.764 152.245 133.751C152.568 133.739 152.888 133.815 153.17 133.972L155.11 135.102L158.77 128.762L156.82 127.642C156.544 127.472 156.321 127.228 156.176 126.938C156.032 126.649 155.97 126.324 156 126.002C156 125.822 156 125.642 156 125.462C156 125.282 156 125.102 156 124.922C155.977 124.599 156.045 124.277 156.195 123.991C156.345 123.705 156.572 123.466 156.85 123.302L158.81 122.212ZM151.81 125.492C151.81 126.678 151.458 127.838 150.799 128.825C150.14 129.812 149.202 130.581 148.106 131.035C147.01 131.489 145.803 131.608 144.639 131.376C143.476 131.145 142.406 130.573 141.567 129.734C140.728 128.895 140.157 127.826 139.925 126.662C139.694 125.498 139.813 124.292 140.267 123.195C140.721 122.099 141.49 121.162 142.477 120.503C143.463 119.843 144.623 119.492 145.81 119.492C147.401 119.492 148.927 120.124 150.053 121.249C151.178 122.374 151.81 123.9 151.81 125.492Z" fill="#DBDBDB"/>
<path d="M101.08 251.592C95.4424 251.59 89.9308 253.26 85.2425 256.391C80.5542 259.522 76.8997 263.973 74.7414 269.181C72.583 274.389 72.0178 280.12 73.1172 285.649C74.2165 291.179 76.9311 296.258 80.9175 300.244C84.9039 304.231 89.983 306.945 95.5124 308.045C101.042 309.144 106.773 308.579 111.981 306.42C117.189 304.262 121.64 300.608 124.771 295.919C127.902 291.231 129.572 285.719 129.57 280.082C129.57 272.526 126.568 265.279 121.225 259.936C115.883 254.593 108.636 251.592 101.08 251.592V251.592ZM101.08 293.392C98.4476 293.392 95.8742 292.611 93.6854 291.149C91.4966 289.686 89.7906 287.607 88.7832 285.175C87.7758 282.743 87.5122 280.067 88.0258 277.485C88.5393 274.903 89.807 272.532 91.6684 270.67C93.5299 268.809 95.9015 267.541 98.4834 267.028C101.065 266.514 103.741 266.778 106.174 267.785C108.606 268.792 110.684 270.498 112.147 272.687C113.609 274.876 114.39 277.449 114.39 280.082C114.391 281.83 114.048 283.561 113.38 285.177C112.711 286.792 111.731 288.26 110.495 289.496C109.258 290.733 107.791 291.713 106.175 292.381C104.56 293.05 102.828 293.393 101.08 293.392Z" fill="#EBEBEB"/>
<path d="M106.56 252.771H95.6L96.21 245.021H105.95L106.56 252.771Z" fill="#EBEBEB"/>
<path d="M85.7 256.47L77.95 264.21L72.9 258.3L79.79 251.41L85.7 256.47Z" fill="#EBEBEB"/>
<path d="M73.57 273.82V284.78L65.81 284.17V274.43L73.57 273.82Z" fill="#EBEBEB"/>
<path d="M77.26 294.682L85.01 302.432L79.09 307.482L72.2 300.592L77.26 294.682Z" fill="#EBEBEB"/>
<path d="M94.61 306.811H105.57L104.97 314.571H95.22L94.61 306.811Z" fill="#EBEBEB"/>
<path d="M115.47 303.121L123.22 295.381L128.27 301.291L121.38 308.181L115.47 303.121Z" fill="#EBEBEB"/>
<path d="M127.61 285.761V274.811L135.36 275.411V285.161L127.61 285.761Z" fill="#EBEBEB"/>
<path d="M123.92 264.911L116.17 257.161L122.08 252.111L128.97 259.001L123.92 264.911Z" fill="#EBEBEB"/>
<path d="M372.31 67.291C366.675 67.291 361.167 68.9619 356.482 72.0924C351.797 75.223 348.145 79.6725 345.989 84.8784C343.832 90.0842 343.268 95.8126 344.367 101.339C345.467 106.866 348.18 111.942 352.165 115.926C356.149 119.911 361.225 122.624 366.752 123.724C372.278 124.823 378.007 124.259 383.213 122.102C388.419 119.946 392.868 116.294 395.999 111.609C399.129 106.924 400.8 101.416 400.8 95.781C400.801 92.0393 400.065 88.334 398.634 84.8768C397.203 81.4197 395.104 78.2784 392.458 75.6326C389.813 72.9868 386.671 70.8883 383.214 69.457C379.757 68.0257 376.052 67.2897 372.31 67.291V67.291ZM372.31 109.081C369.677 109.081 367.103 108.3 364.914 106.837C362.725 105.374 361.019 103.295 360.012 100.862C359.005 98.4296 358.742 95.7528 359.256 93.1707C359.771 90.5885 361.04 88.2169 362.902 86.3559C364.764 84.4949 367.137 83.228 369.719 82.7155C372.302 82.2031 374.979 82.4681 377.41 83.4771C379.842 84.486 381.92 86.1935 383.382 88.3837C384.843 90.5738 385.622 93.1481 385.62 95.781C385.62 97.5284 385.276 99.2587 384.607 100.873C383.938 102.487 382.957 103.954 381.721 105.189C380.485 106.424 379.018 107.404 377.403 108.071C375.788 108.739 374.057 109.082 372.31 109.081V109.081Z" fill="#EBEBEB"/>
<path d="M377.79 68.4709H366.83L367.44 60.7109H377.18L377.79 68.4709Z" fill="#EBEBEB"/>
<path d="M356.93 72.1616L349.19 79.9116L344.13 73.9916L351.02 67.1016L356.93 72.1616Z" fill="#EBEBEB"/>
<path d="M344.8 89.5215V100.471L337.04 99.8715V90.1215L344.8 89.5215Z" fill="#EBEBEB"/>
<path d="M348.49 110.371L356.24 118.121L350.32 123.171L343.43 116.281L348.49 110.371Z" fill="#EBEBEB"/>
<path d="M365.85 122.512H376.8L376.2 130.262H366.45L365.85 122.512Z" fill="#EBEBEB"/>
<path d="M386.7 118.81L394.45 111.07L399.5 116.98L392.61 123.87L386.7 118.81Z" fill="#EBEBEB"/>
<path d="M398.84 101.46V90.5L406.59 91.11V100.85L398.84 101.46Z" fill="#EBEBEB"/>
<path d="M395.14 80.6008L387.4 72.8608L393.31 67.8008L400.2 74.6908L395.14 80.6008Z" fill="#EBEBEB"/>
<path d="M250 458.891C358.237 458.891 445.98 449.431 445.98 437.761C445.98 426.091 358.237 416.631 250 416.631C141.763 416.631 54.02 426.091 54.02 437.761C54.02 449.431 141.763 458.891 250 458.891Z" fill="#EBEBEB"/>
<path d="M38.37 367.141L91.28 366.901L144.18 366.811L250 366.641L355.82 366.811L408.73 366.901L461.63 367.141L408.73 367.391L355.82 367.481L250 367.641L144.18 367.471L91.28 367.381L38.37 367.141Z" fill="#263238"/>
<path d="M288.11 338.898L288.17 351.708L288.11 351.648H300.46H300.57V351.758L300.64 367.488V367.668H300.45L288.1 367.728L288.34 367.488V380.308L288.08 380.038H294.62V380.318V396.038V396.338H285.26L285.54 396.158C282.495 402.66 277.264 407.887 270.76 410.928C267.531 412.433 264.067 413.374 260.52 413.708C258.75 413.878 256.97 413.868 255.22 413.868H244.73C242.959 413.908 241.186 413.858 239.42 413.718C235.868 413.393 232.398 412.463 229.16 410.968C225.93 409.445 222.979 407.39 220.43 404.888C217.903 402.363 215.827 399.424 214.29 396.198L214.69 396.448H205.63H205.17V395.998V380.278V379.798H211.92L211.43 380.288V367.438L211.92 367.928H199.57H199.1V367.458V351.728V351.278H199.55H211.9L211.48 351.708V338.898L211.88 339.308H199.53H199.14V338.918V323.188V322.818H199.51L249.97 322.898L300.43 323.058H300.56V323.188L300.49 338.918V338.998H300.43L288.11 338.898ZM288.11 338.898L300.46 338.838V338.898L300.39 323.168L300.51 323.288L250.05 323.448L199.59 323.528L199.95 323.168V338.898L199.57 338.508H211.92H212.33V338.918V351.728V352.148H211.9H199.55L199.99 351.708V367.438L199.52 366.968H211.87H212.36V380.768H205.61L206.09 380.288V396.008L205.64 395.548H214.7H215L215.12 395.798C216.609 398.936 218.617 401.8 221.06 404.268C223.54 406.702 226.405 408.709 229.54 410.208C232.696 411.672 236.077 412.588 239.54 412.918C241.26 413.088 243 413.078 244.77 413.078H255.31C257.08 413.078 258.82 413.078 260.55 412.938C264.012 412.616 267.394 411.707 270.55 410.248C276.904 407.289 282.018 402.192 285 395.848L285.08 395.668H294.34L294.04 395.968V380.248L294.31 380.518H287.78V380.258V367.438V367.198H288.02L300.37 367.258L300.19 367.438L300.26 351.708L300.37 351.818L288.02 351.768H287.96V351.718L288.11 338.898Z" fill="#263238"/>
<path d="M329.54 296.105C373.47 252.175 373.47 180.95 329.54 137.02C285.61 93.09 214.385 93.09 170.455 137.02C126.525 180.95 126.525 252.175 170.455 296.105C214.385 340.035 285.61 340.035 329.54 296.105Z" fill="white"/>
<path d="M250 329.549C227.651 329.549 205.803 322.922 187.221 310.505C168.638 298.088 154.154 280.44 145.602 259.792C137.049 239.144 134.811 216.424 139.171 194.504C143.531 172.584 154.294 152.449 170.097 136.646C185.9 120.842 206.035 110.08 227.955 105.72C249.875 101.36 272.595 103.598 293.243 112.15C313.891 120.703 331.539 135.187 343.956 153.769C356.373 172.352 363 194.2 363 216.549C362.968 246.509 351.053 275.232 329.868 296.417C308.683 317.602 279.96 329.517 250 329.549ZM250 104.549C227.848 104.549 206.194 111.118 187.776 123.424C169.358 135.731 155.003 153.223 146.525 173.688C138.048 194.154 135.83 216.673 140.152 238.399C144.474 260.125 155.141 280.081 170.804 295.745C186.468 311.408 206.424 322.075 228.15 326.397C249.876 330.718 272.395 328.5 292.861 320.023C313.326 311.546 330.818 297.191 343.125 278.773C355.431 260.354 362 238.7 362 216.549C361.96 186.858 350.147 158.394 329.152 137.4C308.156 116.406 279.691 104.596 250 104.559V104.549Z" fill="#263238"/>
<path d="M362.49 216.559C362.499 236.416 357.25 255.921 347.274 273.09C337.299 290.26 322.955 304.482 305.7 314.309C297.37 311.629 291.17 305.359 284.96 299.089C280.49 294.569 291.39 292.719 284.78 290.329C291.21 283.959 299.7 271.089 288.78 272.939C282.17 270.539 278.06 283.549 269.22 278.939C260.38 274.329 258 263.219 249.11 258.569L240.53 267.059C233.91 264.649 229.25 251.379 227.11 253.499C216.21 255.339 209.87 266.089 201.3 274.569C196.82 270.059 190.21 267.669 192.3 261.159C232.66 216.099 272.3 168.869 314.08 124.059C329.031 134.409 341.248 148.234 349.68 164.345C358.112 180.457 362.508 198.374 362.49 216.559Z" fill="#FFC727"/>
<path d="M261.65 335.998H259.65V264.608C256.95 264.608 252.41 264.658 250.38 264.658H249.62C247.62 264.658 243.06 264.658 240.35 264.608V335.998H238.35V262.578H239.35C241.55 262.578 246.81 262.638 249.6 262.638H250.36C253.15 262.638 258.41 262.638 260.61 262.578H261.61L261.65 335.998Z" fill="#263238"/>
<path d="M259.65 264.618V241.198C259.65 232.548 264.43 226.328 271.83 225.348C278.83 224.428 287.83 228.918 291.04 240.938C293.12 248.658 292.82 253.938 290.12 257.508C285.89 263.108 276.12 264.348 260.66 264.598L259.65 264.618ZM273.65 227.238C273.135 227.236 272.62 227.27 272.11 227.338C265.77 228.168 261.67 233.608 261.67 241.198V262.578C275.57 262.308 284.91 261.108 288.54 256.308C290.84 253.248 291.03 248.538 289.13 241.458C286.44 231.488 279.51 227.238 273.63 227.238H273.65Z" fill="#263238"/>
<path d="M240.35 264.62H239.35C223.9 264.37 214.13 263.13 209.91 257.53C207.2 253.95 206.91 248.68 208.97 240.96C212.2 228.96 221.2 224.45 228.2 225.37C235.59 226.37 240.37 232.57 240.37 241.22L240.35 264.62ZM226.35 227.24C220.47 227.24 213.54 231.49 210.86 241.46C208.97 248.54 209.16 253.25 211.46 256.31C215.09 261.11 224.46 262.31 238.33 262.58V241.2C238.33 233.61 234.23 228.2 227.89 227.34C227.386 227.272 226.878 227.238 226.37 227.24H226.35Z" fill="#263238"/>
<path d="M264.17 306.459H235.83C230.628 306.459 226.41 310.676 226.41 315.879V321.729C226.41 326.932 230.628 331.149 235.83 331.149H264.17C269.373 331.149 273.59 326.932 273.59 321.729V315.879C273.59 310.676 269.373 306.459 264.17 306.459Z" fill="#A6A6A6"/>
<path d="M169.25 136.81C179.814 126.239 192.37 117.868 206.19 112.18C220.015 106.494 234.801 103.507 249.75 103.38C264.71 103.242 279.555 106.009 293.46 111.53C307.374 117.064 320.022 125.361 330.64 135.92C341.223 146.514 349.574 159.122 355.2 173C366.509 201.049 366.645 232.364 355.58 260.51C350.103 274.48 341.832 287.185 331.272 297.846C320.713 308.507 308.087 316.9 294.17 322.51C280.275 328.149 265.416 331.032 250.42 331C235.438 330.975 220.6 328.076 206.71 322.46C192.82 316.853 180.19 308.528 169.56 297.974C158.931 287.42 150.516 274.85 144.81 261C133.352 233.065 133.302 201.751 144.67 173.78C150.316 159.941 158.673 147.371 169.25 136.81V136.81ZM169.25 136.81C158.71 147.39 150.39 159.97 144.78 173.81C133.526 201.744 133.662 232.975 145.16 260.81C150.884 274.575 159.296 287.06 169.904 297.534C180.512 308.009 193.103 316.261 206.94 321.81C220.765 327.352 235.525 330.194 250.42 330.18C265.306 330.192 280.052 327.312 293.84 321.7C307.608 316.062 320.099 307.707 330.566 297.133C341.033 286.56 349.262 273.985 354.76 260.16C365.846 232.21 365.796 201.074 354.62 173.16C349.091 159.311 340.807 146.73 330.269 136.179C319.732 125.628 307.162 117.327 293.32 111.78C279.471 106.238 264.677 103.439 249.76 103.54C234.833 103.62 220.06 106.559 206.24 112.2C192.404 117.877 179.832 126.242 169.25 136.81V136.81Z" fill="#263238"/>
<path d="M363.49 217.559C363.455 202.622 360.457 187.84 354.67 174.069C348.882 160.304 340.508 147.778 330 137.169C319.523 126.544 307.083 118.054 293.37 112.169C279.659 106.32 264.906 103.306 250 103.309C235.095 103.363 220.351 106.403 206.64 112.249C179.023 124.092 156.988 146.059 145.06 173.639C139.17 187.301 136.095 202.011 136.02 216.889C135.944 231.767 138.869 246.507 144.62 260.229C150.399 273.947 158.788 286.411 169.32 296.929C179.848 307.47 192.3 315.896 206 321.749C219.705 327.619 234.444 330.693 249.353 330.789C264.262 330.885 279.04 328.002 292.82 322.309C320.653 310.752 342.842 288.739 354.62 260.999C360.44 247.254 363.456 232.485 363.49 217.559V217.559ZM363.49 217.559C363.503 232.505 360.525 247.302 354.73 261.079C342.995 288.886 320.836 310.991 293 322.659C279.173 328.412 264.337 331.346 249.362 331.289C234.386 331.233 219.573 328.186 205.79 322.329C191.977 316.487 179.415 308.044 168.79 297.459C158.145 286.898 149.654 274.369 143.79 260.569C137.914 246.758 134.923 231.891 135 216.883C135.078 201.874 138.222 187.039 144.24 173.289C156.316 145.564 178.552 123.517 206.38 111.679C220.159 105.804 234.988 102.789 249.967 102.819C264.947 102.848 279.764 105.92 293.52 111.849C307.261 117.776 319.719 126.317 330.2 136.999C340.684 147.649 349.032 160.208 354.79 173.999C360.538 187.802 363.495 202.607 363.49 217.559V217.559Z" fill="#263238"/>
<path d="M249 332.668C264.149 332.628 279.141 329.59 293.11 323.728C307.066 317.863 319.769 309.376 330.53 298.728C341.305 288.101 349.912 275.48 355.87 261.568C361.813 247.661 364.875 232.692 364.87 217.568C364.82 202.442 361.736 187.48 355.8 173.568C343.796 145.554 321.516 123.202 293.54 111.108C279.682 105.134 264.762 102.015 249.671 101.938C234.58 101.861 219.629 104.826 205.71 110.658C191.8 116.526 179.16 125.037 168.49 135.718C157.799 146.393 149.252 159.017 143.31 172.908C137.36 186.808 134.246 201.757 134.15 216.877C134.053 231.996 136.977 246.983 142.75 260.958C154.466 289.182 176.779 311.688 204.9 323.648C218.851 329.567 233.845 332.634 249 332.668V332.668ZM249 332.668C233.842 332.676 218.835 329.657 204.86 323.788C176.653 311.87 154.239 289.376 142.42 261.128C136.58 247.106 133.6 232.059 133.657 216.87C133.714 201.681 136.805 186.656 142.75 172.678C148.693 158.688 157.265 145.969 168 135.208C178.711 124.418 191.417 115.812 205.41 109.868C219.418 103.911 234.496 100.879 249.717 100.959C264.939 101.038 279.985 104.226 293.93 110.328C322.041 122.574 344.397 145.117 356.41 173.328C362.371 187.301 365.43 202.339 365.4 217.531C365.371 232.722 362.255 247.748 356.24 261.698C350.225 275.627 341.565 288.257 330.74 298.888C319.931 309.52 307.184 317.983 293.19 323.818C279.191 329.662 264.17 332.67 249 332.668V332.668Z" fill="#263238"/>
<path d="M213.08 323.869H286.92V382.999C286.92 390.828 283.81 398.337 278.274 403.873C272.738 409.409 265.229 412.519 257.4 412.519H242.6C234.771 412.519 227.262 409.409 221.726 403.873C216.19 398.337 213.08 390.828 213.08 382.999V323.869Z" fill="#455A64"/>
<path d="M298.9 323.869H201.11V339.319H298.9V323.869Z" fill="#37474F"/>
<path d="M298.9 351.898H201.11V367.348H298.9V351.898Z" fill="#37474F"/>
<path d="M292.99 379.939H207.01V395.389H292.99V379.939Z" fill="#37474F"/>
<path d="M343.43 218.908C342.104 218.908 340.832 218.381 339.894 217.444C338.957 216.506 338.43 215.234 338.43 213.908C338.43 161.368 286.76 131.018 286.24 130.718C285.09 130.055 284.251 128.962 283.907 127.681C283.563 126.399 283.742 125.033 284.405 123.883C285.068 122.733 286.161 121.894 287.442 121.55C288.724 121.206 290.09 121.385 291.24 122.048C301.817 128.552 311.428 136.509 319.79 145.688C338.55 166.068 348.46 189.688 348.46 213.908C348.46 214.567 348.33 215.22 348.077 215.829C347.823 216.437 347.452 216.99 346.985 217.454C346.517 217.919 345.963 218.287 345.353 218.536C344.743 218.786 344.089 218.912 343.43 218.908V218.908Z" fill="white"/>
<path d="M342.21 244.059C345.507 244.059 348.18 241.386 348.18 238.089C348.18 234.792 345.507 232.119 342.21 232.119C338.913 232.119 336.24 234.792 336.24 238.089C336.24 241.386 338.913 244.059 342.21 244.059Z" fill="white"/>
<path d="M202.19 420.521L214.14 420.291L226.14 420.161L250.04 420.051L273.94 420.161C281.94 420.241 289.88 420.331 297.85 420.521V420.581C289.85 420.771 281.91 420.861 273.94 420.941L250.04 421.051L226.14 420.941L214.14 420.801L202.19 420.581V420.521Z" fill="#263238"/>
<path d="M205.5 424.641L206.19 423.911L202.57 420.551L206.19 417.191L205.5 416.461L201.11 420.551L205.5 424.641Z" fill="#263238"/>
<path d="M294.5 424.641L293.81 423.911L297.43 420.551L293.81 417.191L294.5 416.461L298.89 420.551L294.5 424.641Z" fill="#263238"/>
<path d="M138.59 89.2009L166.44 88.9609L194.29 88.8309L250 88.7109L305.7 88.8309L333.56 88.9609L361.41 89.2009V89.2209L333.56 89.4609L305.7 89.6009L250 89.7109L194.29 89.6009L166.44 89.4609L138.59 89.2209V89.2009Z" fill="#263238"/>
<path d="M141.9 93.3011L142.59 92.5711L138.97 89.2111L142.59 85.8611L141.9 85.1211L137.5 89.2111L141.9 93.3011Z" fill="#263238"/>
<path d="M358.1 93.3011L357.42 92.5711L361.03 89.2111L357.42 85.8611L358.1 85.1211L362.5 89.2111L358.1 93.3011Z" fill="#263238"/>
<path d="M178.51 411.449C178.32 404.249 178.23 397.039 178.15 389.829L178 368.199L178.11 346.579C178.19 339.369 178.28 332.159 178.47 324.949H178.53C178.72 332.159 178.81 339.369 178.89 346.579L179 368.199L178.89 389.829C178.81 397.039 178.72 404.249 178.53 411.449H178.51Z" fill="#263238"/>
<path d="M182.63 408.141L181.9 407.461L178.54 411.071L175.18 407.461L174.45 408.141L178.54 412.541L182.63 408.141Z" fill="#263238"/>
<path d="M182.63 328.271L181.9 328.951L178.54 325.341L175.18 328.951L174.45 328.271L178.54 323.871L182.63 328.271Z" fill="#263238"/>
<path d="M368.83 411.45L368.59 373.17L368.5 334.88L368.34 258.3L368.5 181.72L368.59 143.44L368.83 105.15H368.84L369.09 143.44L369.17 181.72L369.33 258.3L369.17 334.88L369.08 373.17L368.84 411.45H368.83Z" fill="#263238"/>
<path d="M372.93 408.141L372.19 407.461L368.84 411.071L365.48 407.461L364.75 408.141L368.84 412.541L372.93 408.141Z" fill="#263238"/>
<path d="M372.93 108.461L372.19 109.141L368.84 105.531L365.48 109.141L364.75 108.461L368.84 104.061L372.93 108.461Z" fill="#263238"/>
<path d="M222.65 323.87C217.46 324.07 212.27 324.17 207.08 324.25C201.89 324.33 196.7 324.33 191.51 324.37C186.32 324.41 181.12 324.37 175.93 324.25L168.15 324.11C165.55 324.03 162.96 323.98 160.36 323.87C162.96 323.75 165.55 323.71 168.15 323.62L175.93 323.48C181.12 323.4 186.32 323.41 191.51 323.37C196.7 323.33 201.89 323.37 207.08 323.49C212.27 323.61 217.46 323.66 222.65 323.87Z" fill="#263238"/>
<path d="M241.85 412.541C235.06 412.751 228.27 412.841 221.48 412.921C214.69 413.001 207.9 413.001 201.11 413.041L180.73 412.921L170.55 412.781C167.15 412.701 163.76 412.651 160.36 412.541C163.76 412.431 167.15 412.381 170.55 412.291L180.73 412.151L201.11 412.041C207.9 412.041 214.69 412.041 221.48 412.161C228.27 412.281 235.06 412.331 241.85 412.541Z" fill="#263238"/>
<path d="M201.11 323.871C201.31 333.081 201.41 342.301 201.49 351.511L201.61 379.161L201.49 406.801L201.35 420.631L201.11 434.451L200.86 420.631L200.72 406.801L200.61 379.161L200.72 351.511C200.8 342.301 200.9 333.081 201.11 323.871Z" fill="#263238"/>
<path d="M298.89 323.871C299.1 333.081 299.2 342.301 299.28 351.511L299.39 379.161L299.28 406.801L299.14 420.631L298.89 434.451L298.65 420.631L298.51 406.801L298.39 379.161L298.51 351.511C298.59 342.301 298.69 333.081 298.89 323.871Z" fill="#263238"/>
<path d="M255 412.541C266.14 412.331 277.28 412.241 288.42 412.161L321.85 412.041L355.27 412.151L371.99 412.291L388.7 412.541L371.99 412.781L355.27 412.921L321.85 413.041L288.42 412.921C277.31 412.841 266.17 412.751 255 412.541Z" fill="#263238"/>
<path d="M255 104.06C266.14 103.86 277.28 103.76 288.42 103.68L321.85 103.57L355.27 103.68L371.99 103.82L388.7 104.06L371.99 104.31L355.27 104.45L321.85 104.56L288.42 104.45C277.31 104.37 266.17 104.27 255 104.06Z" fill="#263238"/>
<path d="M137.5 412.54L137.26 370.77L137.17 329.01L137.01 245.47L137.17 161.94L137.26 120.17L137.5 78.4102L137.75 120.17L137.84 161.94L138 245.47L137.84 329.01L137.75 370.77L137.5 412.54Z" fill="#263238"/>
<path d="M362.5 412.54L362.25 370.77L362.16 329.01L362 245.47L362.16 161.94L362.25 120.17L362.5 78.4102L362.74 120.17L362.83 161.94L362.99 245.47L362.83 329.01L362.74 370.77L362.5 412.54Z" fill="#263238"/>
<path d="M47.4901 383.061C47.4901 383.061 46.4901 422.671 46.4901 422.701C46.4901 430.021 46.66 436.441 47.05 439.751C47.0454 439.77 47.0454 439.791 47.05 439.811C47.0576 440.596 47.2458 441.369 47.6 442.071V442.071C49.78 443.541 108.3 445.071 110.36 444.431C112.42 443.791 110.78 437.871 108.55 436.001C106.32 434.131 84.17 423.531 84.17 423.531L84.8601 384.001L47.4901 383.061Z" fill="#EB9481"/>
<path d="M46.42 414.84C46.42 414.84 46.49 422.67 46.49 422.7C46.49 430.02 46.66 436.44 47.05 439.75C47.0454 439.77 47.0454 439.79 47.05 439.81C47.1439 440.582 47.3285 441.341 47.6 442.07V442.07C49.78 443.54 108.3 445.07 110.36 444.43C112.42 443.79 110.78 437.87 108.55 436C106.32 434.13 84.17 423.53 84.17 423.53V415.53L46.42 414.84Z" fill="white"/>
<path d="M87.81 423.591C83.91 422.951 79.18 423.651 76.27 426.481C76.16 426.591 76.27 426.741 76.44 426.701C80.1251 425.422 83.937 424.544 87.81 424.081C87.8665 424.069 87.9173 424.038 87.9538 423.994C87.9903 423.949 88.0103 423.893 88.0103 423.836C88.0103 423.778 87.9903 423.722 87.9538 423.677C87.9173 423.633 87.8665 423.602 87.81 423.591Z" fill="#263238"/>
<path d="M90.65 425.22C86.75 424.58 82.02 425.28 79.11 428.1C79 428.21 79.11 428.37 79.28 428.33C82.962 427.052 86.7705 426.174 90.64 425.71C90.6968 425.699 90.7483 425.67 90.7858 425.626C90.8232 425.582 90.8443 425.526 90.8455 425.469C90.8467 425.411 90.8278 425.355 90.7922 425.309C90.7566 425.264 90.7064 425.232 90.65 425.22V425.22Z" fill="#263238"/>
<path d="M93.49 426.85C89.59 426.21 84.85 426.85 81.95 429.73C81.83 429.84 81.95 430 82.12 429.96C85.802 428.683 89.6105 427.804 93.48 427.34C93.5368 427.33 93.5883 427.3 93.6257 427.256C93.6632 427.212 93.6843 427.157 93.6855 427.099C93.6867 427.041 93.6678 426.985 93.6322 426.939C93.5966 426.894 93.5463 426.862 93.49 426.85Z" fill="#263238"/>
<path d="M110.41 444.469C108.35 445.099 49.8401 443.579 47.6501 442.109C46.8101 441.559 46.5301 433.029 46.4901 422.699C46.4901 422.589 46.4901 422.479 46.4901 422.369L84.25 422.929V423.569C84.25 423.569 106.38 434.169 108.62 436.049C110.86 437.929 112.48 443.839 110.41 444.469Z" fill="#37474F"/>
<path d="M46.4901 422.369V422.699C46.4901 433.029 46.8001 441.569 47.6501 442.109C48.5001 442.649 61.32 443.459 75 443.999C91.4 444.579 109.26 444.869 110.39 444.519C112.45 443.889 110.79 437.959 108.57 436.089C106.35 434.219 84.2 423.619 84.2 423.619V422.989L71.6101 422.799L46.4901 422.369Z" fill="#FFC727"/>
<path d="M109.81 442.18C99.95 441.68 60.15 440.6 50.37 440.86C50.29 440.86 50.28 440.92 50.37 440.92C60.13 441.63 99.95 442.39 109.82 442.34C110 442.34 110 442.19 109.81 442.18Z" fill="#263238"/>
<path opacity="0.1" d="M71.67 422.75C72.59 429.07 74 438.39 75 444C91.4 444.58 109.26 444.87 110.39 444.52C112.45 443.89 110.79 437.96 108.57 436.09C106.35 434.22 84.2 423.62 84.2 423.62V422.99L71.67 422.75Z" fill="black"/>
<path d="M43.09 422.911L85.43 423.321C85.43 423.321 87.84 354.371 88.02 331.381C88.23 305.111 86.74 226.381 86.74 226.381H55.08C55.08 226.381 46.58 243.741 51.44 263.281L52.78 333.571L43.09 422.911Z" fill="#37474F"/>
<path d="M46.23 415.5C47.3477 415.349 48.4726 415.259 49.6 415.23C50.85 415.14 52.1 415.05 53.35 414.99C55.76 414.89 58.17 414.85 60.58 414.84C65.44 414.84 70.31 414.84 75.17 415.01C77.93 415.1 80.7 415.21 83.46 415.37C83.57 415.37 83.56 415.54 83.46 415.54C78.64 415.72 73.82 415.79 69 415.88C64.18 415.97 59.35 416.07 54.54 415.98C53.16 415.98 51.78 415.98 50.4 415.86C49.02 415.74 47.6 415.86 46.25 415.66C46.16 415.65 46.13 415.52 46.23 415.5Z" fill="#263238"/>
<path d="M82.38 377.441C82.88 366.041 83.24 354.631 83.55 343.231C84.1834 320.411 84.35 297.587 84.05 274.761C83.89 261.961 83.54 249.161 83.16 236.361C83.16 236.211 83.38 236.221 83.39 236.361C84.6 259.271 85.06 282.231 85.09 305.171C85.12 328.111 84.64 350.821 83.51 373.621C82.88 386.411 82.1 399.221 80.89 411.971C80.8839 411.988 80.8724 412.004 80.8572 412.014C80.8419 412.025 80.8237 412.031 80.805 412.031C80.7863 412.031 80.7681 412.025 80.7529 412.014C80.7377 412.004 80.7262 411.988 80.72 411.971C81.24 400.461 81.89 389.001 82.38 377.441Z" fill="#263238"/>
<path d="M134.44 428.561C130.54 427.921 125.8 428.611 122.9 431.441C122.78 431.551 122.9 431.711 123.07 431.671C126.752 430.393 130.561 429.515 134.43 429.051C134.487 429.04 134.538 429.011 134.576 428.967C134.613 428.923 134.634 428.867 134.635 428.81C134.637 428.752 134.618 428.696 134.582 428.65C134.547 428.605 134.496 428.573 134.44 428.561Z" fill="#263238"/>
<path d="M137.27 430.19C133.38 429.55 128.64 430.24 125.73 433.07C125.62 433.18 125.73 433.34 125.9 433.3C129.586 432.023 133.397 431.145 137.27 430.68C137.327 430.668 137.377 430.637 137.414 430.593C137.45 430.548 137.47 430.492 137.47 430.435C137.47 430.377 137.45 430.321 137.414 430.276C137.377 430.232 137.327 430.201 137.27 430.19Z" fill="#263238"/>
<path d="M140.11 431.821C136.22 431.171 131.48 431.871 128.57 434.701C128.46 434.811 128.62 434.971 128.74 434.931C132.426 433.654 136.237 432.776 140.11 432.311C140.167 432.299 140.217 432.268 140.254 432.224C140.29 432.179 140.31 432.123 140.31 432.066C140.31 432.008 140.29 431.952 140.254 431.907C140.217 431.863 140.167 431.832 140.11 431.821Z" fill="#263238"/>
<path d="M157 449.43C154.94 450.07 96.42 448.55 94.23 447.08C93.39 446.53 93.12 437.99 93.08 427.67V427.34L130.84 427.9V428.54C130.84 428.54 153 439.14 155.23 441C157.46 442.86 159.1 448.81 157 449.43Z" fill="#FFC727"/>
<path d="M156.44 447.151C146.58 446.651 106.77 445.571 96.9901 445.831C96.9101 445.831 96.9101 445.881 96.9901 445.891C106.75 446.601 146.56 447.351 156.43 447.311C156.64 447.311 156.65 447.161 156.44 447.151Z" fill="#263238"/>
<path d="M73.4501 266.86C73.4501 266.86 90.8201 321.62 91.1301 331.68C91.4001 340.26 90.3001 428.3 90.3001 428.3L134.3 428.56C134.3 428.56 130.58 338.78 129.9 329.84C128.61 313.12 113.97 267.22 103.49 226.33H56.0601C56.0601 226.33 56.4701 247.75 66.2101 263.23C66.2101 263.23 70.6201 265.27 73.4501 266.86Z" fill="#37474F"/>
<path d="M92.64 420.19C97.72 420.04 102.99 419.89 108.07 420.02C113.15 420.15 118.16 420.22 123.19 420.52C126.05 420.69 128.9 420.79 131.75 421.07C131.765 421.076 131.779 421.086 131.788 421.1C131.797 421.113 131.802 421.129 131.802 421.145C131.802 421.162 131.797 421.178 131.788 421.191C131.779 421.204 131.765 421.215 131.75 421.22C126.68 421.52 121.58 421.46 116.49 421.41C111.4 421.36 106.41 421.31 101.37 421.08C98.51 420.95 95.66 420.81 92.81 420.61C92.49 420.59 92.33 420.2 92.64 420.19Z" fill="#263238"/>
<path d="M102.26 252.13C103.82 257.36 105.15 262.67 106.55 267.95C107.95 273.23 109.37 278.59 110.77 283.95C113.48 294.25 116.16 304.56 118.2 315.02C120.272 325.518 121.447 336.173 121.71 346.87C121.95 357.77 121.71 368.69 121.64 379.59C121.57 390.49 121.48 401.52 121.29 412.48C121.29 413.84 121.23 415.2 121.18 416.57C121.18 416.7 120.98 416.69 120.98 416.57C120.69 405.67 120.84 394.74 120.88 383.84C120.92 372.94 121.06 362.02 120.97 351.12C120.924 340.292 119.987 329.485 118.17 318.81C116.33 308.32 113.75 297.98 111.07 287.67C109.54 281.79 107.99 275.92 106.47 270.04C104.95 264.16 103.29 258.21 101.94 252.25C101.924 252.208 101.926 252.161 101.944 252.12C101.963 252.078 101.998 252.046 102.04 252.03C102.082 252.014 102.129 252.016 102.171 252.035C102.212 252.054 102.244 252.088 102.26 252.13V252.13Z" fill="#263238"/>
<path d="M84.32 267.921C82.1308 267.904 79.9467 267.707 77.79 267.331C75.6509 266.854 73.538 266.267 71.46 265.571C69.4166 265.106 67.3458 264.772 65.26 264.571C63.1561 264.266 61.1079 263.656 59.18 262.761C59.09 262.711 59.01 262.851 59.1 262.891C60.9693 263.895 62.9194 264.742 64.93 265.421C67.02 266.081 69.2 266.171 71.31 266.691C73.4461 267.325 75.6205 267.823 77.82 268.181C79.9908 268.455 82.1896 268.418 84.35 268.071C84.43 268.051 84.4 267.921 84.32 267.921Z" fill="#263238"/>
<path d="M87.1 311.479C86.68 309.849 86.29 308.229 85.85 306.609C84.96 303.339 84.05 300.069 83.07 296.829C81.07 290.389 79.25 283.909 77.17 277.509C76 273.869 74.94 270.189 73.56 266.629C73.5534 266.611 73.5397 266.596 73.5219 266.587C73.504 266.579 73.4836 266.578 73.465 266.584C73.4465 266.591 73.4313 266.605 73.4229 266.623C73.4144 266.64 73.4134 266.661 73.42 266.679C74.11 269.999 75.1 273.249 75.98 276.519C76.86 279.789 77.8 283.049 78.74 286.309C80.62 292.769 82.45 299.249 84.5 305.669C85.08 307.469 85.67 309.259 86.29 311.049C86.91 312.839 87.42 314.749 88.18 316.519C88.18 316.541 88.1885 316.561 88.2035 316.576C88.2185 316.591 88.2388 316.599 88.26 316.599C88.2813 316.599 88.3016 316.591 88.3166 316.576C88.3316 316.561 88.34 316.541 88.34 316.519C88 314.789 87.52 313.139 87.1 311.479Z" fill="#263238"/>
<path d="M90.93 177.719C100.41 191.719 114.69 210.659 119.56 207.889C132.02 200.809 146.38 179.519 148.91 174.159C150.38 171.049 130.02 155.709 128.01 158.799C125.66 162.409 115.84 181.529 114.22 181.979C112.99 182.319 101.12 172.269 97.22 170.189C87.52 165.059 86.53 171.239 90.93 177.719Z" fill="#EB9481"/>
<path d="M124.2 163.541L148.49 179.111C148.49 179.111 127.39 208.391 118.14 208.431C112.74 208.431 97.29 190.431 90.57 178.801C83.24 166.071 91.84 165.901 98.83 170.691C104.39 174.501 113.43 181.451 113.83 181.101C114.23 180.751 124.2 163.541 124.2 163.541Z" fill="#FFC727"/>
<path opacity="0.1" d="M119.14 180.82C118.754 181.62 118.491 182.473 118.36 183.35C118.93 182.67 119.401 181.912 119.76 181.1C120.138 180.297 120.404 179.446 120.55 178.57C119.977 179.251 119.503 180.008 119.14 180.82V180.82ZM112.76 205.66L113.29 206.06C113.568 205.421 113.763 204.749 113.87 204.06C113.439 204.549 113.067 205.086 112.76 205.66V205.66ZM129.11 175.22C128.311 174.843 127.463 174.58 126.59 174.44C127.963 175.57 129.607 176.321 131.36 176.62C130.677 176.054 129.92 175.583 129.11 175.22ZM108.94 192.16C108.144 191.772 107.295 191.506 106.42 191.37C107.093 191.948 107.848 192.423 108.66 192.78C109.462 193.158 110.314 193.421 111.19 193.56C110.513 192.985 109.755 192.514 108.94 192.16V192.16ZM91.78 171.82C91.4847 170.985 91.0704 170.197 90.55 169.48C90.6219 170.361 90.8206 171.227 91.14 172.05C91.4353 172.889 91.8495 173.68 92.37 174.4C92.2982 173.517 92.0995 172.648 91.78 171.82V171.82ZM141.45 182.68C141.151 181.844 140.737 181.053 140.22 180.33C140.291 181.215 140.49 182.084 140.81 182.91C141.109 183.747 141.523 184.538 142.04 185.26C141.969 184.376 141.771 183.507 141.45 182.68ZM122.89 198C122.589 197.165 122.175 196.374 121.66 195.65C121.827 197.424 122.454 199.124 123.48 200.58C123.408 199.697 123.209 198.828 122.89 198V198ZM131.24 188.95C130.404 189.25 129.613 189.664 128.89 190.18C130.666 190.022 132.367 189.394 133.82 188.36C132.934 188.448 132.065 188.664 131.24 189V188.95ZM103.24 179.7C102.408 180.002 101.62 180.416 100.9 180.93C102.676 180.772 104.377 180.144 105.83 179.11C104.932 179.186 104.049 179.391 103.21 179.72L103.24 179.7Z" fill="black"/>
<path d="M133 176.409C131.25 175.259 129.46 174.169 127.68 173.069C126.83 172.539 125.98 171.999 125.1 171.499C124.22 170.999 123.24 170.339 122.27 169.869C122.2 169.869 122.15 169.869 122.21 169.959C123.03 170.659 123.98 171.239 124.86 171.869C125.74 172.499 126.51 173.019 127.34 173.579C129.07 174.759 130.81 175.929 132.57 177.059C136.09 179.329 139.67 181.499 143.29 183.619C143.307 183.623 143.324 183.622 143.34 183.616C143.355 183.609 143.369 183.598 143.378 183.584C143.387 183.569 143.391 183.552 143.389 183.535C143.388 183.518 143.381 183.502 143.37 183.489C140 181.059 136.56 178.689 133 176.409Z" fill="#263238"/>
<path opacity="0.1" d="M135 195.791C129 202.381 122.37 208.411 118.18 208.431C112.78 208.431 97.33 190.431 90.61 178.801C86.8 172.191 87.29 168.971 89.61 168.061L135 195.791Z" fill="black"/>
<path d="M206.77 202.999C206.77 202.999 179.77 188.999 152.45 173.329C125.13 157.659 59.75 135.999 57.67 137.599C55.59 139.199 116.67 174.129 145.2 186.249C173.73 198.369 203.48 208.799 203.48 208.799L206.77 202.999Z" fill="#455A64"/>
<path d="M207.52 203.009L189.35 192.529L184.74 202.939L204.14 209.959L207.52 203.009Z" fill="#DBDBDB"/>
<path d="M207.52 203.001C211.84 202.591 216.76 203.331 221.63 208.311C227.51 214.311 233.01 213.911 233.01 213.911C233.01 213.911 215.19 223.261 204.14 209.911L207.52 203.001Z" fill="#263238"/>
<path d="M233.81 213.999C232.93 213.189 227.81 213.549 224.39 210.529C221.17 207.699 213.19 217.709 219.12 217.869C225.86 217.999 235.41 215.429 233.81 213.999Z" fill="#FFC727"/>
<path d="M99.83 177.58C96.63 177.64 91.83 171.31 90.57 167.08C90.49 166.79 91.48 164.15 92.57 160.88C93.2 158.88 93.86 156.67 94.31 154.59L106.63 160.59C105.323 163.022 104.315 165.605 103.63 168.28C103.571 168.566 103.541 168.858 103.54 169.15C103.535 169.196 103.535 169.243 103.54 169.29C103.41 171 102.93 177.52 99.83 177.58Z" fill="#EB9481"/>
<path d="M103.51 169.15C103.504 169.199 103.504 169.25 103.51 169.3C103.051 169.262 102.596 169.185 102.15 169.07C94.56 167.07 94.42 158.07 94.64 154.77L106.64 160.59C105.331 163.021 104.323 165.604 103.64 168.28C103.573 168.565 103.529 168.856 103.51 169.15V169.15Z" fill="#263238"/>
<path d="M94.12 138.91C91.99 143.37 92.44 157.23 95.31 160.73C99.48 165.81 107.31 167.41 111.87 162.17C116.3 157.1 115.39 139.05 112.09 135.76C107.23 130.92 97.25 132.33 94.12 138.91Z" fill="#EB9481"/>
<path d="M106.57 149.1C106.57 149.1 106.49 149.15 106.49 149.18C106.54 150.12 106.43 151.18 105.59 151.52C106.63 151.41 106.76 150 106.57 149.1Z" fill="#263238"/>
<path d="M105.72 148.139C104.21 148.039 104.14 151.059 105.53 151.139C106.92 151.219 107 148.209 105.72 148.139Z" fill="#263238"/>
<path d="M111.81 149.221C111.81 149.221 111.88 149.221 111.88 149.301C111.88 150.231 111.88 151.301 112.76 151.641C112.76 151.641 112.76 151.701 112.76 151.691C111.72 151.521 111.61 150.091 111.81 149.221Z" fill="#263238"/>
<path d="M112.67 148.261C114.17 148.191 114.21 151.201 112.82 151.261C111.43 151.321 111.41 148.331 112.67 148.261Z" fill="#263238"/>
<path d="M104.56 146.73C104.96 146.625 105.354 146.498 105.74 146.35C106.175 146.274 106.572 146.056 106.87 145.73C106.942 145.608 106.972 145.466 106.956 145.325C106.94 145.184 106.878 145.053 106.78 144.95C106.556 144.779 106.291 144.671 106.012 144.635C105.733 144.6 105.449 144.64 105.19 144.75C104.629 144.905 104.145 145.261 103.83 145.75C103.772 145.864 103.746 145.991 103.757 146.118C103.767 146.245 103.813 146.366 103.889 146.468C103.965 146.57 104.068 146.649 104.187 146.696C104.306 146.742 104.435 146.754 104.56 146.73V146.73Z" fill="#263238"/>
<path d="M113.87 146.771C113.466 146.683 113.069 146.57 112.68 146.431C112.243 146.37 111.839 146.166 111.53 145.851C111.453 145.734 111.417 145.595 111.428 145.456C111.439 145.316 111.496 145.184 111.59 145.081C111.806 144.901 112.067 144.782 112.345 144.736C112.622 144.69 112.907 144.719 113.17 144.821C113.735 144.941 114.235 145.27 114.57 145.741C114.64 145.853 114.676 145.983 114.674 146.115C114.671 146.247 114.631 146.375 114.556 146.484C114.482 146.594 114.378 146.679 114.256 146.73C114.134 146.781 114 146.795 113.87 146.771Z" fill="#263238"/>
<path d="M106.42 154.791C106.649 155.164 106.951 155.488 107.308 155.74C107.666 155.993 108.072 156.17 108.5 156.261C108.878 156.338 109.265 156.365 109.65 156.341H109.87H110.07C110.12 156.334 110.166 156.311 110.2 156.274C110.235 156.238 110.256 156.191 110.26 156.141V156.141V156.001V155.921C110.26 155.201 110.26 154.101 110.26 154.101C110.52 154.241 111.85 154.881 111.83 154.501C111.831 151.258 111.496 148.024 110.83 144.851C110.83 144.751 110.65 144.771 110.66 144.851C110.66 147.851 111.16 150.851 111.19 153.851C110.719 153.617 110.217 153.452 109.7 153.361C109.6 153.361 109.82 155.481 109.78 155.801C109.191 155.845 108.598 155.771 108.038 155.582C107.478 155.393 106.962 155.093 106.52 154.701C106.44 154.651 106.36 154.711 106.42 154.791Z" fill="#263238"/>
<path d="M109.23 156C108.824 156.504 108.293 156.894 107.69 157.13C107.365 157.234 107.015 157.234 106.69 157.13C105.95 156.92 105.95 156.23 106.1 155.65C106.182 155.339 106.303 155.04 106.46 154.76C107.227 155.459 108.198 155.893 109.23 156V156Z" fill="#263238"/>
<path d="M107.69 157.089C107.365 157.193 107.015 157.193 106.69 157.089C105.95 156.879 105.95 156.189 106.1 155.609C106.493 155.641 106.864 155.804 107.152 156.073C107.441 156.341 107.63 156.7 107.69 157.089Z" fill="#FF97B8"/>
<path opacity="0.2" d="M97.42 135.07C97.42 136.92 97.18 142.64 96.34 143.84C95.5 145.04 93.73 147.84 92.79 148.27C92.79 144.46 93.21 140.82 94.12 138.91C94.8607 137.361 95.9995 136.036 97.42 135.07V135.07Z" fill="#263238"/>
<path d="M104 128.68C102.802 128.687 101.625 128.995 100.577 129.575C99.5285 130.155 98.6425 130.989 98 132C97.4589 133.021 97.2825 134.196 97.5 135.33C97.5 135.33 97.6 135.33 97.6 135.33C97.5456 134.325 97.7618 133.323 98.2261 132.429C98.6905 131.536 99.3859 130.783 100.24 130.25C101.177 129.636 102.243 129.247 103.355 129.113C104.467 128.98 105.595 129.105 106.65 129.48C107.684 129.829 108.557 130.539 109.11 131.48C109.11 131.57 109.36 131.48 109.31 131.41C108.55 129.73 106.37 128.62 104 128.68Z" fill="#263238"/>
<path d="M119.33 134.389C118.894 133.086 118.012 131.978 116.84 131.259C115.22 130.259 113.39 130.409 111.57 130.599C111.57 130.599 111.57 130.679 111.57 130.669C113.104 130.392 114.685 130.57 116.12 131.179C117.3 131.775 118.236 132.761 118.77 133.969C119.285 135.208 119.336 136.591 118.914 137.864C118.491 139.137 117.624 140.215 116.47 140.899C115.794 141.276 115.048 141.511 114.277 141.591C113.507 141.67 112.729 141.591 111.99 141.359C111.99 141.359 111.89 141.429 111.99 141.449C112.988 141.808 114.066 141.881 115.103 141.661C116.14 141.44 117.095 140.935 117.861 140.201C118.627 139.468 119.173 138.535 119.438 137.509C119.702 136.482 119.676 135.402 119.36 134.389H119.33Z" fill="#263238"/>
<path d="M93.13 141.589C93.13 141.589 90.64 136.849 92.74 134.119C93.94 132.579 97.88 132.789 97.88 132.789C98.9396 131.226 100.576 130.147 102.43 129.789C105.73 129.049 109.65 130.989 109.65 130.989C109.65 130.989 112.79 129.209 115.72 130.899C119.81 133.249 119.27 139.489 115.15 141.479C112.25 142.869 108.33 140.299 108.33 140.299C107.95 140.299 104.07 142.669 101.16 139.199C101.16 139.199 98.77 141.309 96.64 139.819C96.3058 140.438 95.7903 140.939 95.1628 141.255C94.5352 141.572 93.8258 141.688 93.13 141.589Z" fill="#263238"/>
<path d="M95.36 150.34C95.36 150.34 92.86 145.57 90.74 146.4C88.62 147.23 90.09 153.88 92.31 155.04C92.584 155.209 92.8894 155.322 93.2079 155.37C93.5264 155.418 93.8514 155.402 94.1634 155.322C94.4753 155.241 94.7679 155.099 95.0233 154.903C95.2788 154.706 95.492 154.46 95.65 154.18L95.36 150.34Z" fill="#EB9481"/>
<path d="M91.21 148.301C91.21 148.301 91.21 148.301 91.21 148.361C91.9116 148.829 92.5066 149.439 92.9563 150.153C93.406 150.866 93.7003 151.666 93.82 152.501C93.7447 152.326 93.6328 152.17 93.492 152.043C93.3512 151.915 93.1847 151.819 93.0038 151.761C92.8228 151.704 92.6315 151.685 92.4429 151.708C92.2542 151.73 92.0725 151.792 91.91 151.891C91.8968 151.891 91.884 151.896 91.8747 151.905C91.8653 151.915 91.86 151.928 91.86 151.941C91.86 151.954 91.8653 151.967 91.8747 151.976C91.884 151.986 91.8968 151.991 91.91 151.991C92.2086 151.936 92.517 151.974 92.7927 152.101C93.0685 152.228 93.2981 152.438 93.45 152.701C93.7003 153.144 93.9015 153.614 94.05 154.101C94.11 154.251 94.38 154.211 94.35 154.041C94.66 151.921 93.42 148.791 91.21 148.301Z" fill="#263238"/>
<path d="M48.43 236.13C48.54 236.31 108.43 248.58 109.1 248.07C110.03 247.36 113.22 186.43 103.82 172.85C101.5 169.51 92.53 164.79 89.22 166.35C80.64 170.35 74.44 180.99 70.54 187.13C67.65 191.67 63.69 199.61 59.94 207.8C53.74 221.3 48.05 235.46 48.43 236.13Z" fill="#FFC727"/>
<path opacity="0.1" d="M90.06 190C89.6733 190.8 89.4071 191.653 89.27 192.53C89.8452 191.857 90.317 191.102 90.67 190.29C91.0541 189.49 91.3202 188.638 91.46 187.76C90.8849 188.434 90.4131 189.189 90.06 190ZM64 202.94C63.6222 203.743 63.3596 204.595 63.22 205.47C63.7952 204.797 64.267 204.042 64.62 203.23C65.0023 202.43 65.265 201.577 65.4 200.7C64.8318 201.379 64.3606 202.133 64 202.94ZM95.33 242.49C94.9508 243.292 94.6882 244.144 94.55 245.02C95.1248 244.345 95.5996 243.591 95.96 242.78C96.332 241.976 96.5944 241.125 96.74 240.25C96.1512 240.923 95.6628 241.678 95.29 242.49H95.33ZM65.1 239.49V239.6L65.79 239.73C66.1581 238.943 66.4139 238.109 66.55 237.25C65.9414 237.924 65.439 238.686 65.06 239.51L65.1 239.49ZM49.89 232.81C49.5121 233.614 49.2462 234.465 49.1 235.34C49.6818 234.667 50.1572 233.908 50.51 233.09C50.8933 232.29 51.1562 231.438 51.29 230.56C50.7081 231.247 50.2236 232.011 49.85 232.83L49.89 232.81ZM82.49 221C82.1121 221.804 81.8462 222.655 81.7 223.53C82.2817 222.86 82.7572 222.105 83.11 221.29C83.4909 220.489 83.7537 219.637 83.89 218.76C83.3218 219.439 82.8506 220.192 82.49 221ZM78.15 177.76C77.7667 178.561 77.5039 179.413 77.37 180.29C77.9385 179.609 78.4096 178.852 78.77 178.04C79.1538 177.243 79.4199 176.394 79.56 175.52C78.9861 176.193 78.5113 176.944 78.15 177.75V177.76ZM109 192.18C108.204 191.792 107.355 191.526 106.48 191.39C107.153 191.968 107.908 192.443 108.72 192.8L109.14 192.97C109.05 192.69 109 192.43 109 192.18ZM65.51 221.71C64.7069 221.333 63.8556 221.067 62.98 220.92C63.6523 221.504 64.4114 221.98 65.23 222.33C66.0274 222.714 66.8763 222.98 67.75 223.12C67.0769 222.543 66.3221 222.068 65.51 221.71V221.71ZM109.37 245.16C108.569 244.779 107.717 244.516 106.84 244.38C107.518 244.954 108.276 245.425 109.09 245.78L109.45 245.94C109.45 245.72 109.45 245.49 109.52 245.24L109.37 245.16ZM87.91 233.75C87.1082 233.371 86.2562 233.109 85.38 232.97C86.0583 233.544 86.8162 234.015 87.63 234.37C88.4298 234.757 89.2823 235.023 90.16 235.16C89.4796 234.588 88.7222 234.113 87.91 233.75ZM106.37 217.34C105.572 216.96 104.723 216.697 103.85 216.56C104.526 217.132 105.28 217.604 106.09 217.96C106.892 218.341 107.744 218.607 108.62 218.75C107.941 218.176 107.183 217.701 106.37 217.34V217.34ZM83.44 200.93C82.6392 200.549 81.7869 200.286 80.91 200.15C81.5883 200.724 82.3462 201.195 83.16 201.55C83.9598 201.937 84.8123 202.203 85.69 202.34C85.0111 201.766 84.2534 201.291 83.44 200.93V200.93ZM59.15 231.88C58.8575 231.044 58.443 230.256 57.92 229.54C57.993 230.424 58.1916 231.293 58.51 232.12C58.8116 232.953 59.2254 233.74 59.74 234.46C59.6693 233.576 59.4706 232.707 59.15 231.88V231.88ZM91.78 171.82C91.4847 170.985 91.0704 170.197 90.55 169.48C90.6219 170.361 90.8206 171.227 91.14 172.05C91.4353 172.889 91.8495 173.68 92.37 174.4C92.2982 173.517 92.0995 172.648 91.78 171.82V171.82ZM101.33 201.65C101.033 200.816 100.618 200.028 100.1 199.31C100.172 200.194 100.371 201.063 100.69 201.89C100.987 202.727 101.405 203.515 101.93 204.23C101.854 203.346 101.652 202.478 101.33 201.65V201.65ZM79.71 241.28C79.4126 240.446 78.9985 239.658 78.48 238.94C78.553 239.824 78.7516 240.693 79.07 241.52C79.21 241.87 79.35 242.22 79.52 242.52L80.13 242.64C80.0188 242.179 79.8785 241.725 79.71 241.28V241.28ZM96.41 224.88C96.1085 224.048 95.6947 223.261 95.18 222.54C95.253 223.424 95.4516 224.293 95.77 225.12C96.0693 225.957 96.4833 226.748 97 227.47C96.9282 226.583 96.7295 225.711 96.41 224.88V224.88ZM74.24 211.4C73.9396 210.563 73.5221 209.771 73 209.05C73.0719 209.938 73.2706 210.81 73.59 211.64C73.8924 212.483 74.3133 213.277 74.84 214C74.7667 213.109 74.5646 212.234 74.24 211.4V211.4ZM56.93 214.49L56.56 215.33L56.81 215.25C57.6454 214.947 58.4333 214.526 59.15 214C58.3909 214.06 57.6437 214.225 56.93 214.49V214.49ZM73.81 229.85C72.9736 230.15 72.1827 230.564 71.46 231.08C72.3471 231.009 73.2193 230.81 74.05 230.49C74.882 230.195 75.6668 229.781 76.38 229.26C75.4994 229.332 74.6338 229.531 73.81 229.85V229.85ZM73.29 192.15C72.4721 192.449 71.7009 192.864 71 193.38C71.8837 193.308 72.7525 193.109 73.58 192.79C74.4146 192.49 75.2024 192.072 75.92 191.55C75.0189 191.622 74.133 191.824 73.29 192.15V192.15ZM103.79 234.84C102.954 235.14 102.163 235.554 101.44 236.07C102.324 235.999 103.193 235.8 104.02 235.48C104.857 235.189 105.646 234.775 106.36 234.25C105.479 234.322 104.614 234.521 103.79 234.84V234.84ZM93.52 211.31C92.6836 211.61 91.8927 212.024 91.17 212.54C92.0539 212.469 92.9228 212.27 93.75 211.95C94.5869 211.659 95.3756 211.245 96.09 210.72C95.2094 210.792 94.3438 210.991 93.52 211.31V211.31ZM103.21 179.72C102.378 180.022 101.59 180.436 100.87 180.95C102.646 180.792 104.347 180.164 105.8 179.13C104.913 179.202 104.041 179.401 103.21 179.72Z" fill="black"/>
<path d="M98.14 184.3C105.63 198.49 120.87 224.3 132.14 226.3C144.06 228.38 161.22 216.93 168.43 213.58C171.43 212.16 157.14 192.16 153.6 192.85C150.06 193.54 138.85 201.28 136.16 201.29C133.47 201.3 118.27 184.79 107.49 175.82C94.8 165.23 92.06 172.78 98.14 184.3Z" fill="#EB9481"/>
<path d="M170.34 174C171.102 174.265 171.765 174.755 172.243 175.405C172.722 176.055 172.992 176.834 173.02 177.64C174.35 177.276 175.765 177.389 177.02 177.96C179.17 179.07 178.38 182.96 178.38 182.96C179.829 182.87 181.272 183.218 182.52 183.96C184.47 185.22 184.23 189.23 184.23 189.23C185.607 189.888 186.701 191.02 187.31 192.42C188.8 196.21 185.08 201.21 182.76 204.42C180.44 207.63 168 214.66 166.16 214.66L148.66 197.18C148.66 197.18 151.49 187.49 158.06 180.54C160.78 177.66 167.37 173.13 170.34 174Z" fill="#EB9481"/>
<path d="M172.58 177.559C168.92 179.879 166.15 183.159 163.2 186.269C163.13 186.339 163.2 186.439 163.31 186.369C166.21 183.239 169.69 180.729 172.71 177.719C172.8 177.639 172.68 177.499 172.58 177.559Z" fill="#263238"/>
<path d="M178 182.819C177.222 183.427 176.526 184.133 175.93 184.919C175.24 185.719 174.58 186.519 173.93 187.339C172.597 188.966 171.327 190.633 170.12 192.339C170.07 192.409 170.12 192.519 170.23 192.439C171.54 190.809 172.87 189.209 174.23 187.639C174.92 186.849 175.62 186.069 176.32 185.299C177.027 184.61 177.658 183.845 178.2 183.019C178.213 182.991 178.218 182.96 178.212 182.929C178.207 182.899 178.193 182.871 178.171 182.849C178.149 182.827 178.121 182.812 178.09 182.807C178.059 182.802 178.028 182.806 178 182.819V182.819Z" fill="#263238"/>
<path d="M184.15 189.299C183.456 189.863 182.861 190.539 182.39 191.299L180.63 193.559C179.45 195.059 178.27 196.559 177.03 198.019C176.97 198.089 177.08 198.199 177.14 198.119C178.4 196.649 179.68 195.189 180.93 193.699C181.54 192.969 182.15 192.239 182.75 191.499C183.368 190.885 183.869 190.163 184.23 189.369C184.239 189.359 184.244 189.345 184.243 189.331C184.242 189.317 184.236 189.304 184.225 189.294C184.214 189.285 184.201 189.28 184.187 189.281C184.172 189.282 184.159 189.289 184.15 189.299V189.299Z" fill="#263238"/>
<path d="M148.21 194.451L161.98 220.451C161.98 220.451 139.39 231.661 128.16 226.281C116.93 220.901 101.27 194.191 96.42 182.221C91.57 170.251 97.06 166.331 107.1 174.841C117.14 183.351 134.82 199.681 135.54 200.041C136.26 200.401 148.21 194.451 148.21 194.451Z" fill="#FFC727"/>
<path opacity="0.1" d="M103.21 179.721C102.378 180.022 101.59 180.436 100.87 180.951C102.646 180.792 104.347 180.164 105.8 179.131C104.913 179.203 104.041 179.401 103.21 179.721ZM135.27 216.921C134.432 217.216 133.64 217.63 132.92 218.151C134.696 217.987 136.397 217.355 137.85 216.321C136.966 216.396 136.097 216.598 135.27 216.921V216.921ZM149.58 197.001C149.22 197.091 148.88 197.211 148.58 197.331C147.742 197.626 146.95 198.04 146.23 198.561C147.117 198.489 147.989 198.29 148.82 197.971C149.185 197.833 149.542 197.676 149.89 197.501L149.58 197.001ZM122.89 198.001C122.589 197.165 122.175 196.375 121.66 195.651C121.827 197.425 122.454 199.124 123.48 200.581C123.408 199.697 123.21 198.828 122.89 198.001V198.001ZM127.17 224.861C126.869 224.028 126.455 223.241 125.94 222.521C126.013 223.405 126.212 224.273 126.53 225.101L126.68 225.471C126.96 225.641 127.24 225.801 127.51 225.941C127.41 225.591 127.29 225.241 127.17 224.881V224.861ZM146.17 209.461C145.871 208.628 145.457 207.84 144.94 207.121C145.013 208.005 145.212 208.873 145.53 209.701C145.829 210.534 146.243 211.322 146.76 212.041C146.677 211.162 146.468 210.3 146.14 209.481L146.17 209.461ZM122.17 212.281C121.368 211.902 120.516 211.639 119.64 211.501C120.321 212.071 121.078 212.542 121.89 212.901C122.691 213.283 123.543 213.549 124.42 213.691C123.714 213.119 122.929 212.651 122.09 212.301L122.17 212.281ZM160.17 216.821C159.81 216.601 159.44 216.411 159.06 216.221C158.258 215.845 157.406 215.586 156.53 215.451C157.213 216.017 157.97 216.488 158.78 216.851C159.342 217.108 159.924 217.319 160.52 217.481L160.17 216.821ZM109.05 192.141C108.254 191.753 107.405 191.486 106.53 191.351C107.203 191.929 107.958 192.404 108.77 192.761C109.572 193.139 110.424 193.401 111.3 193.541C110.588 192.963 109.792 192.498 108.94 192.161L109.05 192.141ZM112.57 206.251C112.191 207.053 111.928 207.905 111.79 208.781C112.365 208.105 112.84 207.351 113.2 206.541C113.576 205.738 113.839 204.886 113.98 204.011C113.365 204.685 112.853 205.447 112.46 206.271L112.57 206.251ZM135.31 205.311C134.923 206.111 134.657 206.963 134.52 207.841C135.658 206.472 136.413 204.826 136.71 203.071C136.094 203.743 135.585 204.505 135.2 205.331L135.31 205.311ZM144.71 222.741C144.335 223.545 144.069 224.396 143.92 225.271C144.502 224.601 144.977 223.845 145.33 223.031C145.713 222.231 145.976 221.378 146.11 220.501C145.506 221.182 144.998 221.942 144.6 222.761L144.71 222.741Z" fill="black"/>
<path d="M149.3 209.421C148.38 207.541 147.41 205.681 146.45 203.831C145.98 202.931 145.53 202.041 145.03 201.161C144.53 200.281 144.03 199.211 143.44 198.311C143.44 198.241 143.31 198.311 143.33 198.361C143.69 199.361 144.21 200.361 144.63 201.361C145.05 202.361 145.46 203.191 145.89 204.101C146.77 205.991 147.66 207.891 148.59 209.761C150.46 213.521 152.42 217.211 154.44 220.881C154.443 220.892 154.449 220.903 154.456 220.912C154.464 220.921 154.474 220.929 154.484 220.933C154.495 220.938 154.507 220.941 154.519 220.941C154.531 220.94 154.543 220.937 154.553 220.932C154.564 220.927 154.573 220.919 154.581 220.91C154.588 220.9 154.593 220.889 154.596 220.878C154.598 220.866 154.598 220.854 154.595 220.843C154.593 220.831 154.587 220.82 154.58 220.811C152.89 217.001 151.15 213.181 149.3 209.421Z" fill="#263238"/>
<path d="M110.11 207C108.8 204.83 103.9 196.12 103.02 194.5C101.25 191.22 99.5101 187.92 97.7401 184.65H97.6801C98.4901 186.74 99.3901 188.79 100.36 190.81L100.09 190.43C99.52 189.66 98.9201 188.91 98.3201 188.16C98.3201 188.11 98.2101 188.16 98.2401 188.22C98.7801 189.04 99.3001 189.86 99.8701 190.66C100.23 191.16 100.62 191.66 100.99 192.13C101.43 193.01 101.88 193.87 102.34 194.74C103.23 196.4 108.07 205.12 109.98 207.05C110.05 207.16 110.16 207.09 110.11 207Z" fill="#263238"/>
<path d="M124.2 156.931C128.2 156.231 133.74 153.211 136.72 153.661C137.457 153.746 138.146 154.066 138.687 154.574C139.227 155.082 139.589 155.751 139.72 156.481C139.72 156.481 141.95 153.991 144.59 154.851C145.95 155.291 146.44 157.851 146.44 157.851C146.977 157.318 147.65 156.943 148.385 156.767C149.12 156.591 149.89 156.62 150.61 156.851C152.44 157.571 152.61 160.021 152.61 160.021C152.61 160.021 155.26 159.021 156.89 160.351C160.2 163.051 155.72 179.351 149.03 180.211C145.91 180.611 147.22 176.691 147.22 176.691C147.22 176.691 143.97 181.871 140.59 181.031C137.21 180.191 139.22 175.201 139.22 175.201C139.22 175.201 136.03 180.201 132.61 178.971C129.19 177.741 132 173.001 132 173.001C132 173.001 128.55 175.941 126.14 174.411C122.14 171.871 129.52 166.511 129.65 162.701L124.29 159.101L124.2 156.931Z" fill="#EB9481"/>
<path d="M130.23 155.08C126.39 155.41 123.23 149.92 119.55 149.71C114.55 149.43 117.71 156.06 124.27 159.14L129.79 160.64L130.23 155.08Z" fill="#EB9481"/>
<path d="M146.5 157.77C146.5 157.7 146.62 157.72 146.62 157.77C146.383 164.32 143.811 170.57 139.37 175.39C139.21 175.55 138.91 175.54 139.08 175.39C141.94 172 145.51 163.14 146.5 157.77Z" fill="#263238"/>
<path d="M131.53 173.279C135.83 168.519 138.17 162.869 139.74 156.719C139.74 156.639 139.87 156.719 139.87 156.719C139.87 159.939 138.51 163.719 137.16 166.629C135.963 169.324 134.08 171.658 131.7 173.399C131.6 173.499 131.44 173.379 131.53 173.279Z" fill="#263238"/>
<path d="M100.59 169.919C96.43 166.139 83.5101 161.719 77.3001 163.919C69.4601 166.749 56.77 191.309 59.12 193.539C63.32 197.539 84.0201 186.539 89.26 181.259C94.5 175.979 100.59 169.919 100.59 169.919Z" fill="#FFC727"/>
<path opacity="0.1" d="M81.48 163.35C81.0797 163.548 80.6982 163.782 80.34 164.05C81.2207 163.978 82.0863 163.779 82.91 163.46H83.02C82.5 163.37 82 163.35 81.48 163.35ZM72.05 169.35C71.93 169.05 71.81 168.75 71.67 168.46L71.21 168.99C71.27 169.19 71.34 169.39 71.41 169.59C71.7075 170.424 72.1216 171.212 72.64 171.93C72.5672 171.049 72.3686 170.184 72.05 169.36V169.35ZM91.78 171.81C91.4847 170.975 91.0704 170.186 90.55 169.47C90.6219 170.35 90.8206 171.216 91.14 172.04C91.4353 172.878 91.8495 173.669 92.37 174.39C92.2973 173.509 92.0986 172.644 91.78 171.82V171.81ZM65.51 183C64.7082 182.62 63.8562 182.358 62.98 182.22C63.6554 182.794 64.4098 183.269 65.22 183.63C66.023 184.006 66.8745 184.269 67.75 184.41C67.0747 183.835 66.3203 183.36 65.51 183V183ZM78.15 177.79C77.7667 178.59 77.5039 179.442 77.37 180.32C77.9385 179.638 78.4096 178.881 78.77 178.07C79.1538 177.272 79.42 176.423 79.56 175.55C78.9885 176.213 78.5138 176.953 78.15 177.75V177.79Z" fill="black"/>
<path d="M95.2201 176.869C94.1301 177.559 93.0201 178.229 91.9401 178.929C93.5301 177.409 95.1301 175.929 96.6701 174.329C96.6701 174.269 96.6701 174.179 96.5801 174.229C94.6139 175.725 92.7311 177.328 90.9401 179.029C89.0401 180.689 87.1401 182.359 85.1701 183.929C83.2232 185.517 81.1608 186.958 79.0001 188.239C76.6917 189.535 74.292 190.662 71.8201 191.609C70.4201 192.149 69.0201 192.669 67.6101 193.159C66.0937 193.68 64.5389 194.081 62.9601 194.359C62.6601 194.359 62.8201 194.529 62.9601 194.519C64.2882 194.377 65.6004 194.112 66.8801 193.729C68.2101 193.349 69.5501 192.969 70.8801 192.569C73.428 191.843 75.9101 190.903 78.3001 189.759C82.9501 187.449 86.7901 184.039 90.4601 180.419L90.6701 180.209C91.3201 179.789 91.9601 179.349 92.5801 178.889C93.4901 178.219 94.4101 177.599 95.3701 176.999C95.3901 176.999 95.3101 176.819 95.2201 176.869Z" fill="#263238"/>
<path d="M389 351.102C389 351.102 393.41 365.802 398.64 380.812C403.87 395.822 408.53 430.302 407.55 431.192C406.57 432.082 395 398.562 391.6 383.252C388.2 367.942 385.85 352.252 385.85 352.252L389 351.102Z" fill="#FFC727"/>
<path d="M389.07 350.73L392.57 360.71L387.01 362.06L385.34 351.78L389.07 350.73Z" fill="#DBDBDB"/>
<path d="M389.08 350.731C389.47 349.465 389.554 348.125 389.325 346.821C389.095 345.517 388.559 344.286 387.76 343.231C385.33 339.761 386.04 337.061 386.04 337.061C386.04 337.061 379.78 345.061 385.34 351.781L389.08 350.731Z" fill="#455A64"/>
<path d="M386.09 336.661C386.41 337.171 385.76 339.661 386.93 341.661C388.1 343.661 382.36 346.581 382.83 343.611C383.37 340.251 385.51 335.731 386.09 336.661Z" fill="#FFC727"/>
<path d="M416.42 359.701C416.42 359.701 412.16 371.601 407.21 383.701C402.26 395.801 396.94 423.971 397.7 424.701C398.46 425.431 409.47 398.411 412.89 385.961C416.31 373.511 419 360.751 419 360.751L416.42 359.701Z" fill="#A6A6A6"/>
<path d="M416.38 359.391L413.07 367.451L417.58 368.811L419.4 360.421L416.38 359.391Z" fill="#DBDBDB"/>
<path d="M416.37 359.4C416.85 352.76 422.12 347.4 422.12 347.4C422.12 347.4 424.26 355.19 419.4 360.46L416.37 359.4Z" fill="#455A64"/>
<path d="M403.32 344.102C403.32 344.102 405 356.632 407.32 369.512C409.64 382.392 408.95 411.042 408.04 411.642C407.13 412.242 402.04 383.472 401.28 370.582C400.52 357.692 400.62 344.582 400.62 344.582L403.32 344.102Z" fill="#37474F"/>
<path d="M403.42 343.811L404.98 352.381L400.28 352.761L400.25 344.181L403.42 343.811Z" fill="#DBDBDB"/>
<path d="M400.25 344.181C400.25 344.181 403.25 343.881 403.42 343.811C404.353 340.882 405.098 337.895 405.65 334.871C405.47 334.631 395.53 336.031 395.58 336.961C395.63 337.891 400.25 344.181 400.25 344.181Z" fill="#455A64"/>
<path d="M414.31 391.541H388.02C385.601 391.541 383.64 393.502 383.64 395.921V431.291C383.64 433.71 385.601 435.671 388.02 435.671H414.31C416.729 435.671 418.69 433.71 418.69 431.291V395.921C418.69 393.502 416.729 391.541 414.31 391.541Z" fill="#455A64"/>
<path d="M414.26 384.57H388.06V391.54H414.26V384.57Z" fill="#455A64"/>
</svg>
